<svg xmlns="http://www.w3.org/2000/svg" xmlns:xlink="http://www.w3.org/1999/xlink" viewBox="0 0 425.2 421.43"><defs><style>.cls-1{fill:url(#Sfumatura_senza_nome_11);}.cls-2{fill:url(#linear-gradient);}.cls-3{fill:url(#linear-gradient-2);}</style><linearGradient id="Sfumatura_senza_nome_11" x1="-5139.11" y1="-3984.35" x2="-5138.13" y2="-4097.23" gradientTransform="matrix(-1, 0, 0, 1, -4762.42, 4051.53)" gradientUnits="userSpaceOnUse"><stop offset="0" stop-color="#e5352d"/><stop offset="0.53" stop-color="#ff7e00"/><stop offset="0.99" stop-color="#ffa300"/></linearGradient><linearGradient id="linear-gradient" x1="355.2" y1="440.54" x2="-155.3" y2="-39.2" gradientUnits="userSpaceOnUse"><stop offset="0" stop-color="#ed153c"/><stop offset="0.67" stop-color="#ff7e00"/><stop offset="0.99" stop-color="#ffa300"/></linearGradient><linearGradient id="linear-gradient-2" x1="355.53" y1="109.69" x2="331" y2="520.82" gradientUnits="userSpaceOnUse"><stop offset="0" stop-color="#ed153c"/><stop offset="0.53" stop-color="#ff7e00"/><stop offset="0.99" stop-color="#ffa300"/></linearGradient></defs><g id="Livello_2" data-name="Livello 2"><g id="Layer_1" data-name="Layer 1"><g id="Livello_2-2" data-name="Livello 2"><g id="Livello_1-2" data-name="Livello 1-2"><g id="_Gruppo_" data-name=" Gruppo "><g id="_Gruppo_2" data-name=" Gruppo 2"><path id="_Tracciato_" data-name=" Tracciato " class="cls-1" d="M408.2,0H344.83c-9.38,0-17,7.28-17,16.27V77c0,9,7.6,16.27,17,16.27H408.2c9.37,0,17-7.29,17-16.27V16.27C425.18,7.28,417.57,0,408.2,0Z"/></g></g></g></g><path class="cls-2" d="M408.2,234.3H344.42c-9.38,0-17,7.28-17,16.27v32.2c0,25-21.16,45.29-47.25,45.29H145c-26.1,0-47.26-20.28-47.26-45.29V166.82c0-3.91,4.52-5.62,7.87-3.44,24.59,16,49,31.73,98.09,63.2a34.85,34.85,0,0,0,3.58,2,13.38,13.38,0,0,0,5.4,1.31,11.11,11.11,0,0,0,2.91-.4l.08,0a4.19,4.19,0,0,0,.47-.14,9.5,9.5,0,0,0,2.57-1.22,11.09,11.09,0,0,0,5.07-9.31l0-1V141.24c0-.48,0-1,0-1.43,0-.22,0-.44-.05-.66s0-.53-.07-.8-.06-.54-.1-.8-.05-.43-.09-.64-.1-.59-.15-.88-.07-.35-.11-.53-.13-.63-.21-.94c0-.14-.07-.28-.11-.42-.09-.35-.18-.69-.29-1,0-.08,0-.17-.08-.26a29.2,29.2,0,0,0-7.09-11.76,24.12,24.12,0,0,0-3.45-2.84L181.18,97.56C141.87,71.12,76.93,27.38,47.64,7.28,24.94-8.29,0,3.7,0,27.54V331.76c0,49.37,41.76,89.4,93.28,89.4H331.9c51.51,0,93.28-40,93.28-89.4V250.57C425.18,241.58,417.57,234.3,408.2,234.3Z"/><path class="cls-3" d="M408.2,141.63H344.42a17,17,0,0,0-17,17V263.76c0,29.1,3.53,71-6.14,99.05-11.11,32.25-35.8,49.21-67.37,58.62h78c51.51,0,94.38-38.92,93.28-93.27V158.6A17,17,0,0,0,408.2,141.63Z"/></g></g></svg>